<?xml version="1.0" encoding="UTF-8" standalone="no"?>
<!DOCTYPE svg PUBLIC "-//W3C//DTD SVG 20010904//EN"
              "http://www.w3.org/TR/2001/REC-SVG-20010904/DTD/svg10.dtd">

<svg xmlns="http://www.w3.org/2000/svg"
     width="2.11333in" height="0.186667in"
     viewBox="0 0 634 56">
  <defs>
    <linearGradient id="Gradient1">
      <stop class="stop1" offset="0%"/>
      <stop class="stop2" offset="50%"/>
      <stop class="stop3" offset="100%"/>
    </linearGradient>
    <style type="text/css"><![CDATA[
      #rect1 { fill: url(#Gradient1); }
      .stop1 { stop-color: #fc7121; }
      .stop2 { stop-color: #fc4521; }
      .stop3 { stop-color: #b00991; }
    ]]></style>
  </defs>
  <path id="logo"
        fill="url(#Gradient1)" stroke="black" stroke-width="1"
        d="M 17.00,45.04
           C 17.00,45.04 13.00,45.04 13.00,45.04
             10.86,44.97 5.07,44.14 3.58,45.04
             0.65,47.04 0.87,52.52 4.15,53.97
             6.25,54.90 9.70,54.97 12.00,55.00
             14.97,55.03 20.30,55.20 23.00,54.35
             29.82,52.20 33.73,44.63 30.43,38.04
             26.37,29.94 18.06,33.47 14.00,27.00
             14.00,27.00 28.00,28.00 28.00,28.00
             28.00,28.00 30.00,18.07 30.00,18.07
             23.26,17.11 14.52,15.57 8.00,18.07
             1.38,20.76 -2.33,28.57 1.85,34.90
             6.47,41.88 13.02,37.87 17.00,45.04 Z
           M 67.00,50.00
           C 67.00,50.00 67.00,55.00 67.00,55.00
             67.00,55.00 84.00,55.00 84.00,55.00
             84.00,55.00 84.00,16.00 84.00,16.00
             84.00,16.00 67.00,16.00 67.00,16.00
             67.00,16.00 67.00,23.00 67.00,23.00
             62.41,18.68 59.67,16.24 53.00,16.78
             31.80,18.51 30.33,48.97 49.00,54.57
             51.40,55.06 56.54,55.22 59.00,54.57
             62.68,54.11 64.32,52.37 67.00,50.00 Z
           M 57.04,29.60
           C 59.73,29.05 62.36,28.64 64.69,30.60
             67.89,33.29 67.95,40.42 62.94,42.40
             55.21,45.46 46.88,35.54 57.04,29.60 Z
           M 92.00,17.00
           C 92.00,17.00 92.00,37.00 92.00,37.00
             92.03,41.78 92.09,45.03 95.39,48.90
             102.19,56.85 120.13,57.32 127.67,50.32
             135.27,43.27 133.00,26.82 133.00,17.00
             133.00,17.00 117.00,17.00 117.00,17.00
             117.00,17.00 117.00,35.00 117.00,35.00
             116.95,37.73 116.88,41.58 113.86,42.83
             110.61,44.18 108.18,40.69 107.21,38.00
             107.21,38.00 107.21,17.00 107.21,17.00
             107.21,17.00 92.00,17.00 92.00,17.00 Z
           M 176.00,53.00
           C 176.00,53.00 174.00,42.00 174.00,42.00
             165.79,43.85 160.03,46.75 154.00,39.00
             154.00,39.00 177.00,37.00 177.00,37.00
             176.96,32.79 176.95,29.93 175.08,26.00
             167.53,10.12 138.03,14.69 138.03,36.00
             138.03,39.70 138.62,42.77 140.61,45.96
             142.29,48.66 144.33,50.50 147.04,52.12
             151.11,54.55 153.38,54.93 158.00,55.00
             168.20,55.13 166.50,54.91 176.00,53.00 Z
           M 165.00,30.00
           C 165.00,30.00 153.00,33.00 153.00,33.00
             154.59,25.61 160.66,23.22 165.00,30.00 Z
           M 183.00,17.00
           C 183.00,17.00 183.00,55.00 183.00,55.00
             183.00,55.00 199.00,55.00 199.00,55.00
             199.00,48.68 196.88,34.95 203.11,31.45
             206.05,29.80 209.73,30.01 213.00,30.00
             212.88,27.48 212.36,20.43 210.83,18.58
             206.86,13.76 201.18,21.56 200.00,25.00
             200.00,25.00 199.00,17.00 199.00,17.00
             199.00,17.00 183.00,17.00 183.00,17.00 Z
           M 248.00,54.00
           C 248.00,54.00 246.00,43.12 246.00,43.12
             243.21,43.37 239.69,44.23 237.02,43.12
             230.74,40.93 229.47,33.63 235.11,29.74
             238.51,27.39 242.24,28.51 246.00,29.00
             246.00,29.00 248.00,19.00 248.00,19.00
             240.53,16.58 230.99,15.05 224.00,19.70
             211.74,27.86 212.39,45.23 223.02,52.01
             230.09,56.53 240.12,55.04 248.00,54.00 Z
           M 253.00,17.00
           C 253.00,17.00 253.00,55.00 253.00,55.00
             253.00,55.00 269.00,55.00 269.00,55.00
             269.00,48.68 266.88,34.95 273.11,31.45
             276.05,29.80 279.73,30.01 283.00,30.00
             282.88,27.48 282.36,20.43 280.83,18.58
             276.86,13.76 271.18,21.56 270.00,25.00
             270.00,25.00 269.00,17.00 269.00,17.00
             269.00,17.00 253.00,17.00 253.00,17.00 Z
           M 307.00,16.71
           C 300.18,17.11 293.33,18.50 288.80,24.18
             286.28,27.34 285.19,31.01 285.04,35.00
             284.60,47.16 293.19,54.84 305.00,55.00
             311.91,55.09 317.26,55.23 322.90,50.47
             330.85,43.76 331.24,29.54 323.79,22.33
             318.97,17.65 313.39,16.87 307.00,16.71 Z
           M 305.04,28.61
           C 316.53,26.76 315.69,40.89 309.89,43.26
             302.10,46.44 295.14,34.33 305.04,28.61 Z
           M 332.00,17.00
           C 332.00,17.00 337.42,44.00 337.42,44.00
             337.42,44.00 340.73,54.01 340.73,54.01
             340.73,54.01 358.00,55.00 358.00,55.00
             358.00,55.00 361.00,37.00 361.00,37.00
             361.00,37.00 366.00,55.00 366.00,55.00
             366.00,55.00 385.00,55.00 385.00,55.00
             385.00,55.00 393.00,17.00 393.00,17.00
             393.00,17.00 380.00,17.00 380.00,17.00
             380.00,17.00 376.00,42.00 376.00,42.00
             376.00,42.00 372.20,26.00 372.20,26.00
             372.20,26.00 370.02,18.60 370.02,18.60
             370.02,18.60 365.00,17.02 365.00,17.02
             365.00,17.02 357.73,17.99 357.73,17.99
             357.73,17.99 355.35,24.00 355.35,24.00
             355.35,24.00 352.00,41.00 352.00,41.00
             352.00,41.00 348.75,25.00 348.75,25.00
             348.75,25.00 346.41,18.02 346.41,18.02
             346.41,18.02 332.00,17.00 332.00,17.00 Z
           M 427.00,5.00
           C 427.00,5.00 427.00,23.00 427.00,23.00
             425.40,21.01 424.29,19.42 421.96,18.17
             415.33,14.62 405.21,17.56 400.53,23.10
             395.01,29.64 394.56,39.80 399.14,46.99
             400.88,49.71 403.12,51.85 406.00,53.31
             409.19,54.93 412.50,55.08 416.00,54.98
             421.64,54.84 422.87,53.65 427.00,50.00
             427.00,50.00 427.00,55.00 427.00,55.00
             427.00,55.00 444.00,55.00 444.00,55.00
             444.00,55.00 444.00,3.00 444.00,3.00
             444.00,3.00 427.00,5.00 427.00,5.00 Z
           M 417.04,29.60
           C 419.73,29.05 422.36,28.64 424.69,30.60
             427.89,33.29 427.95,40.42 422.94,42.40
             415.25,45.44 407.06,35.43 417.04,29.60 Z
           M 599.00,0.46
           C 590.49,2.36 583.76,6.01 579.41,14.00
             569.88,31.55 581.46,54.75 602.00,55.00
             609.10,55.08 613.57,55.37 620.00,51.64
             634.94,42.97 637.56,20.23 625.82,8.10
             618.82,0.88 608.56,-0.86 599.00,0.46 Z
           M 603.00,14.36
           C 620.11,13.29 620.43,42.59 603.00,40.89
             591.32,39.75 589.84,18.14 603.00,14.36 Z
           M 520.00,55.00
           C 520.00,55.00 538.00,55.00 538.00,55.00
             538.44,52.65 539.04,48.30 540.73,46.60
             543.06,44.26 550.72,45.00 554.00,45.00
             554.19,47.27 554.47,51.64 555.98,53.40
             558.17,55.94 570.38,55.00 574.00,55.00
             574.00,55.00 559.00,2.00 559.00,2.00
             559.00,2.00 541.00,2.00 541.00,2.00
             533.10,2.14 534.19,4.78 531.29,15.00
             531.29,15.00 520.00,55.00 520.00,55.00 Z
           M 547.00,14.00
           C 547.00,14.00 552.00,36.00 552.00,36.00
             552.00,36.00 542.00,36.00 542.00,36.00
             542.00,36.00 547.00,14.00 547.00,14.00 Z
           M 467.00,2.00
           C 467.00,2.00 467.00,55.00 467.00,55.00
             478.16,55.00 495.21,56.54 505.00,51.62
             521.14,43.52 523.18,17.35 507.99,7.11
             497.42,-0.02 479.55,2.00 467.00,2.00 Z
           M 484.00,41.00
           C 484.00,41.00 484.00,16.00 484.00,16.00
             487.91,16.00 492.52,15.65 495.95,17.85
             502.50,22.07 502.66,33.61 496.79,38.49
             493.24,41.44 488.32,41.00 484.00,41.00 Z" />
</svg>
